PathFileType	4	(X/Y/Z)	C:/Users/beibeiliu/ov580/test_trc/User3\sequence.9_training_dense_left.trc
DataRate	CameraRate	NumFrames	NumMarkers	Units	OrigDataRate	OrigDataStartFrame	OrigNumFrames
120	120	15	19	mm	120	134	213
Frame#	Time	ThumbCMC			ThumbMCP			ThumbIP			ThumbTip			IndexMCP			IndexPIP			IndexTip			MiddleMCP			MiddlePIP			MiddleTip			RingMCP			RingPIP			RingTip			PinkyMCP			PinkyPIP			PinkyTip			BackHand1			BackHand2			BackHand3	
		X0	Y0	Z0	X1	Y1	Z1	X2	Y2	Z2	X3	Y3	Z3	X4	Y4	Z4	X5	Y5	Z5	X6	Y6	Z6	X7	Y7	Z7	X8	Y8	Z8	X9	Y9	Z9	X10	Y10	Z10	X11	Y11	Z11	X12	Y12	Z12	X13	Y13	Z13	X14	Y14	Z14	X15	Y15	Z15	X16	Y16	Z16	X17	Y17	Z17	X18	Y18	Z18	
133	1.10833	-191.277	32.6358	18.5957	-164.931	36.295	-0.716414	-147.962	30.6475	-26.5925	-136.219	15.4334	-48.3705	-201.063	40.1636	-50.8757	-194.284	51.4204	-78.256	-176.147	62.7893	-99.3184	-185.62	12.1643	-65.5103	-154.008	17.8608	-71.2629	-147.516	10.4065	-33.4007	-172.583	-10.8363	-51.3298	-143.078	-4.09749	-41.6284	-155.325	1.35481	-8.95545	-167.63	-27.8792	-38.0096	-144.993	-19.5443	-23.3155	-160.646	-9.13207	-0.818924	-218.77	-15.2747	-14.662	-227.755	-20.426	14.3911	-223.933	13.5315	2.96618	
134	1.11667	-187.824	29.2857	24.3939	-161.701	31.7426	-1.03739	-143.95	29.166	-24.3165	-132.282	16.1851	-41.9873	-193.832	41.7827	-48.9497	-181.109	60.7454	-74.5821	-161.606	62.8792	-91.1153	-180.698	16.9167	-62.7705	-149.635	16.3149	-69.6062	-144.808	13.5196	-27.2329	-167.515	-9.13776	-48.9581	-138.938	-5.1222	-34.8932	-156.12	-3.00561	-3.69178	-162.13	-26.8681	-37.7884	-143.851	-15.7247	-19.149	-161.57	-8.40092	3.42804	-212.484	-13.6185	-17.6852	-226.019	-16.637	10.4794	-220.466	17.488	2.48956	
135	1.125	-185.282	29.1569	28.5716	-157.151	32.9138	6.1979	-138.229	29.6559	-20.8755	-124.518	19.685	-39.5747	-184.395	44.9657	-50.4698	-167.627	56.4934	-73.0941	-141.376	59.2394	-83.9551	-175.093	17.4414	-60.0794	-144.005	18.6151	-65.4167	-141.201	6.48397	-23.6769	-160.539	-3.85331	-45.8145	-135.423	-9.32921	-27.3417	-153.676	-2.43332	-0.242119	-164.505	-25.1531	-33.4981	-141.654	-19.1792	-13.9555	-159.787	-12.9978	8.96871	-211.595	-10.5153	-15.3562	-222.231	-20.4248	10.156	-215.949	18.0756	4.97578	
136	1.13333	-180.522	25.9505	25.2074	-152.719	31.121	4.96454	-133.448	31.1938	-14.6979	-120.579	20.3269	-37.7823	-176.577	46.0769	-48.2765	-156.622	54.6175	-69.3194	-127.395	51.4784	-72.1045	-169.826	18.8432	-59.0505	-136.905	17.3743	-61.6773	-135.575	9.27026	-21.2011	-159.091	-7.55662	-43.0935	-133.417	-10.3052	-29	-152.795	-6.53989	2.53768	-156.932	-25.4631	-33.0337	-140.178	-24.3115	-11.7218	-161.86	-13.6927	11.9336	-209.001	-8.17768	-12.3772	-221.667	-17.9342	11.7337	-211.855	17.6271	5.34228	
137	1.14167	-178.014	25.3168	27.5994	-149.872	29.9949	10.4449	-131.814	27.0768	-15.881	-119.934	16.91	-35.8892	-172.158	44.1313	-42.6471	-144.43	54.507	-62.7141	-115.572	44.1369	-54.9614	-168.119	18.6077	-53.9039	-133.032	15.4932	-60.2226	-131.344	2.75025	-22.3831	-158.809	-9.85788	-42.3484	-132.775	-15.8731	-27.0011	-150.94	-6.68538	3.47337	-157.928	-25.6068	-31.7959	-140.424	-24.956	-9.91377	-156.546	-16.9894	11.4163	-208.188	-6.94697	-12.8495	-219.498	-15.6309	14.6151	-208.792	22.0917	7.55832	
138	1.15	-175.079	23.9169	32.409	-147.967	26.911	11.9064	-126.681	27.0604	-16.4275	-116.437	15.1591	-34.1823	-166.024	42.9925	-43.8739	-136.21	44.9104	-61.4117	-111.17	32.1998	-42.5109	-164.65	15.9796	-57.4638	-131.489	11.9367	-59.3505	-128.247	1.58954	-22.3983	-157.808	-8.86039	-41.6852	-130.565	-14.9428	-25.7807	-148.523	-13.3872	2.7135	-156.187	-24.4509	-31.1729	-139.362	-26.8051	-8.71951	-155.639	-18.1198	11.5338	-206.432	-7.74134	-16.6409	-219.283	-13.8792	17.1669	-204.788	22.9716	7.76798	
139	1.15833	-171.958	26.9736	30.5643	-145.371	28.4035	9.15678	-128.116	24.1054	-15.8371	-119.821	12.4149	-31.997	-162.52	42.7711	-43.9657	-131.425	42.675	-58.3425	-112.583	27.0965	-41.4216	-163.292	12.9812	-59.1424	-133.321	10.3981	-62.8721	-126.062	1.96454	-23.9028	-154.097	-11.2442	-41.6504	-130.124	-18.4205	-23.2277	-147.934	-9.3884	3.2144	-160.423	-28.8346	-30.8068	-138.863	-29.1585	-11.1172	-159.335	-19.457	11.3838	-205.595	-7.62132	-10.8285	-217.962	-13.9598	11.952	-204.909	18.8268	10.1767	
140	1.16667	-173.419	25.3281	29.0614	-145.593	28.1766	10.5613	-127.181	24.5391	-15.4943	-117.658	10.1527	-36.7053	-163.867	37.2083	-46.4794	-132.982	37.9319	-61.612	-112.938	24.205	-42.6067	-164.893	14.0167	-55.259	-133.372	7.62704	-62.9538	-128.712	1.11079	-22.1738	-154.853	-10.1075	-42.7686	-128.478	-16.0082	-23.6353	-146.378	-8.43231	2.04773	-157.231	-29.7185	-30.7221	-138.049	-28.4183	-10.9602	-154.284	-17.0752	8.87914	-204.365	-8.86968	-11.9731	-217.875	-14.8294	17.7273	-204.848	22.5877	7.43675	
141	1.175	-173.523	26.4175	29.4741	-147.698	25.833	7.83601	-126.672	26.7106	-15.5787	-119.557	11.2222	-33.5022	-167.308	38.4944	-44.8629	-141.777	40.9489	-64.8202	-113.433	29.5276	-45.9025	-167.224	10.7721	-56.9069	-130.865	9.76133	-61.3076	-127.689	2.77352	-24.1793	-153.256	-14.5731	-44.5472	-130.131	-18.7477	-27.7052	-144.712	-13.4972	0.339174	-153.797	-31.8461	-32.3074	-136.417	-29.24	-12.986	-155.85	-16.0143	12.5297	-202.899	-10.3233	-15.9028	-217.645	-16.7808	12.2561	-204.723	17.0261	7.76026	
142	1.18333	-174.852	27.2975	30.4829	-148.729	26.576	6.49429	-128.677	24.6424	-17.8736	-120.772	9.30672	-36.4284	-172.47	37.0735	-46.9254	-146.961	39.4248	-70.0365	-118.883	31.8489	-58.8813	-165.725	12.4597	-58.9648	-134.6	6.82435	-64.5086	-131.837	-0.452921	-24.0857	-156.352	-11.479	-44.0357	-130.151	-18.1925	-28.9921	-146.509	-6.53006	0.822173	-153.712	-32.9668	-32.1692	-136.307	-25.51	-13.4461	-153.594	-19.1742	12.724	-204.648	-11.2796	-14.4663	-218.392	-20.0022	11.4083	-207.779	14.8968	7.10332	
143	1.19167	-177.733	26.9868	25.9243	-151.228	24.9194	3.88785	-130.823	23.4674	-18.8477	-121.508	8.22317	-37.6451	-174.304	35.905	-49.1856	-153.427	42.1159	-73.3219	-121.676	37.6628	-68.0821	-166.232	7.13285	-62.3075	-133.998	4.8501	-63.491	-132.381	3.43068	-23.5889	-156.876	-14.153	-44.5808	-129.457	-17.9375	-26.2179	-143.549	-10.8972	-0.236448	-157.74	-33.9964	-31.4355	-136.294	-25.4494	-13.17	-157.257	-18.2681	12.3536	-205.695	-11.597	-17.5629	-218.29	-22.3175	11.7	-207.843	12.5533	5.13722	
144	1.2	-179.151	25.8624	24.9736	-150.83	28.4506	1.17723	-131.379	22.7492	-21.6495	-119.695	7.01532	-41.0243	-177.126	34.6629	-50.4913	-156.301	45.4517	-74.476	-123.74	44.0663	-77.7052	-168.693	5.56079	-61.5273	-136.674	4.81388	-67.0757	-132.64	4.98564	-24.8165	-152.488	-13.8972	-45.9782	-129.814	-16.7872	-31.0637	-147.946	-10.83	1.17294	-157.858	-30.8369	-31.3803	-137.326	-26.4378	-11.0664	-153.573	-20.1893	10.2596	-205.882	-13.6723	-17.1812	-219.607	-22.1845	11.4322	-208.176	14.2797	1.30899	
145	1.20833	-180.017	28.2233	20.7409	-153.349	28.1857	0.663793	-133.223	21.8203	-24.0998	-124.439	3.30642	-39.6411	-177.797	34.3478	-54.7783	-163.443	43.1319	-76.5449	-137.079	46.5434	-87.8438	-169.778	3.24445	-61.0738	-138.224	2.39653	-68.202	-129.163	3.63404	-25.7126	-158.571	-14.0057	-45.0419	-130.957	-18.0669	-29.7771	-148.236	-9.51165	-0.89894	-153.646	-35.0044	-33.6565	-137.505	-29.4645	-12.7414	-156.304	-21.4897	9.93079	-206.253	-18.2033	-16.3425	-221.194	-24.3882	10.7852	-210.557	13.5377	3.27505	
146	1.21667	-184.05	22.9714	22.3679	-159.232	26.5242	-0.44689	-138.642	24.4155	-24.0375	-136.381	-0.816702	-38.3224	-181.868	30.4937	-53.9011	-170.608	42.4955	-75.3249	-145.292	45.6402	-97.9182	-171.629	5.41826	-60.7732	-138.756	1.92244	-68.9649	-120.33	1.51204	-34.0608	-158.172	-15.5977	-47.8503	-131.372	-17.8937	-29.5168	-144.72	-12.6879	-3.02005	-158.302	-35.6559	-33.4469	-138.543	-27.8559	-17.2751	-156.711	-17.6995	7.63922	-208.185	-17.87	-14.8844	-221.968	-23.9402	10.569	-214.793	10.5664	2.65432	
147	1.225	-184.84	24.379	20.3463	-160.002	29.7402	-1.9338	-146.507	19.1985	-27.334	-138.965	-2.3862	-43.6332	-186.943	30.3464	-52.7451	-178.438	36.1939	-78.7844	-163.219	39.4571	-101.552	-172.022	-0.355522	-61.7661	-141.692	0.758489	-70.6635	-119.203	0.669568	-38.7795	-163.188	-19.6273	-47.3843	-134.249	-17.0065	-34.1612	-148.285	-12.192	-2.80957	-160.995	-38.6301	-35.9982	-140.28	-27.3582	-18.1038	-158.348	-19.1671	5.98915	-209.458	-20.918	-17.3935	-223.272	-22.8116	15.8856	-213.98	13.6341	4.80981	
